<?xml version="1.0" encoding="utf-8"?>
<!-- Generator: Adobe Illustrator 18.1.1, SVG Export Plug-In . SVG Version: 6.00 Build 0)  -->
<svg version="1.1" xmlns="http://www.w3.org/2000/svg" xmlns:xlink="http://www.w3.org/1999/xlink" x="0px" y="0px"
	 viewBox="0 0 28.5 28.5" enable-background="new 0 0 28.5 28.5" xml:space="preserve">
<g id="guides" display="none">
</g>
<g id="templates">
	<path fill="#FFFFFF" d="M28.3,1.4c-0.3-0.6-0.8-1.1-1.5-1.3C26.6,0,26.4,0,26.2,0H2.4C2.1,0,1.9,0,1.7,0.1C1,0.3,0.5,0.8,0.2,1.4
		C0.1,1.7,0,2,0,2.4v23.8c0,1.3,1.1,2.4,2.4,2.4h8.5c0-1.3,0-7.3,0-12.4H8.4v-4.5h2.5V8.8c0-2.1,1-5.3,5.3-5.3l3.9,0v4.3
		c0,0-2.4,0-2.8,0c-0.5,0-1.1,0.2-1.1,1.2v2.6h4l-0.5,4.5h-3.5c0,5,0,11,0,12.4h10c1.3,0,2.4-1.1,2.4-2.4V2.4
		C28.5,2,28.4,1.7,28.3,1.4z"/>
</g>
<g id="Layer_4" display="none">
</g>
<g id="columnas">
</g>
</svg>
